<svg xmlns="http://www.w3.org/2000/svg" width="56" height="56" fill="none" viewBox="0 0 56 56">
  <path fill="#000" fill-rule="evenodd" d="M13.788 13.789h4.597V11.49h18.384v2.299h4.596V11.49h4.596v6.895H9.193V11.49h4.596v2.299ZM9.192 22.98v22.98h22.981v4.597H9.193a4.596 4.596 0 0 1-4.597-4.596V11.49a4.596 4.596 0 0 1 4.596-4.596h4.596V4.596h4.597v2.298h18.384V4.596h4.596v2.298h4.596a4.596 4.596 0 0 1 4.597 4.596v20.683h-4.596v-9.192H9.191Zm43.664 25.28H48.26v4.596h-4.597V48.26h-4.596v-4.596h4.596v-4.597h4.597v4.596h4.596v4.597Z" clip-rule="evenodd"/>
</svg>
