<svg xmlns="http://www.w3.org/2000/svg" width="56" height="56" fill="none" viewBox="0 0 56 56">
  <path fill="#000" fill-rule="evenodd" d="M18.385 13.789h-4.597V11.49H9.193v6.895h36.77V11.49h-4.597v2.299H36.77V11.49H18.385v2.299Zm27.577 9.192H9.192v22.98h36.77v-22.98ZM36.769 6.894H18.385V4.596h-4.597v2.298H9.193a4.596 4.596 0 0 0-4.596 4.596v34.471a4.596 4.596 0 0 0 4.596 4.597h36.77a4.596 4.596 0 0 0 4.596-4.596V11.49a4.596 4.596 0 0 0-4.596-4.596h-4.597V4.596H36.77v2.298Zm-20.682 25.28v-4.597h4.596v4.596h-4.596Zm9.192 0h4.596v-4.597h-4.596v4.596Zm9.192 0v-4.597h4.596v4.596h-4.596Zm-18.384 4.595v4.596h4.596V36.77h-4.596Zm13.788 4.596h-4.596V36.77h4.596v4.596Z" clip-rule="evenodd"/>
</svg>
