<svg xmlns="http://www.w3.org/2000/svg" width="55" height="55" fill="none" viewBox="0 0 55 55">
  <path fill="#000" fill-rule="evenodd" d="M27.5 9.167c5.485 0 10.19 2.472 13.308 6.875h-8.725v4.583h16.042V4.583h-4.583v7.495C39.588 7.293 33.926 4.583 27.5 4.583c-12.656 0-22.917 10.26-22.917 22.917h4.584c0-10.125 8.208-18.333 18.333-18.333Zm0 36.666c-5.485 0-10.19-2.472-13.307-6.875h8.724v-4.583H6.875v16.042h4.583v-7.495c3.954 4.785 9.616 7.495 16.042 7.495 12.657 0 22.917-10.26 22.917-22.917h-4.584c0 10.125-8.208 18.333-18.333 18.333Z" clip-rule="evenodd"/>
</svg>
