<svg xmlns="http://www.w3.org/2000/svg" width="56" height="56" fill="none" viewBox="0 0 56 56">
  <path fill="#000" fill-rule="evenodd" d="M20.683 3.144H34.47a4.596 4.596 0 0 1 4.596 4.596v2.299h6.895a4.596 4.596 0 0 1 4.596 4.596v4.596a4.596 4.596 0 0 1-4.596 4.596h-.185l-2.114 25.279a4.596 4.596 0 0 1-4.596 4.596h-22.98c-2.539 0-4.597-2.058-4.589-4.405l-2.122-25.47h-.184a4.596 4.596 0 0 1-4.596-4.596v-4.596a4.596 4.596 0 0 1 4.596-4.596h6.895V7.74a4.596 4.596 0 0 1 4.596-4.596Zm-11.49 11.49h36.768v4.597H9.192v-4.596Zm4.794 9.193h27.179l-2.09 25.088-.009.19h-22.98l-2.1-25.278ZM34.471 7.74v2.299H20.683V7.74H34.47Z" clip-rule="evenodd"/>
</svg>
