<svg xmlns="http://www.w3.org/2000/svg" width="57" height="57" fill="none" viewBox="0 0 57 57">
  <path fill="#000" fill-rule="evenodd" d="M51.48 46.885V30.798h-4.595v16.087h-36.77v-36.77h16.087V5.52H10.115a4.596 4.596 0 0 0-4.596 4.596v36.77a4.596 4.596 0 0 0 4.596 4.596h36.77a4.596 4.596 0 0 0 4.596-4.596ZM44.997 7.182a5.645 5.645 0 0 0-8.004.003L17.76 26.417c-1.719 1.514-2.845 3.767-3.04 6.19l-.008 7.389v2.298h9.501c2.607-.179 4.882-1.317 6.488-3.168L49.824 20.01a5.657 5.657 0 0 0 0-8.001l-4.828-4.828ZM24.05 37.703c1.228-.087 2.37-.658 3.288-1.708l13.93-13.93-6.329-6.33-14.033 14.028c-.93.823-1.507 1.976-1.6 3.03v4.906l4.744.004Zm14.14-25.218 6.329 6.33 2.054-2.054a1.061 1.061 0 0 0 0-1.501l-4.834-4.835a1.048 1.048 0 0 0-1.489 0l-2.06 2.06Z" clip-rule="evenodd"/>
</svg>
