<svg xmlns="http://www.w3.org/2000/svg" width="56" height="57" fill="none" viewBox="0 0 56 57">
  <path fill="#000" fill-rule="evenodd" d="M37.774 5.52c1.505 0 2.947.6 4 1.662l7.127 7.126a5.657 5.657 0 0 1 0 8l-26.018 26.01c-1.605 1.852-3.88 2.99-6.487 3.168h-11.8v-2.298l.008-9.686c.195-2.424 1.322-4.677 3.04-6.191L33.772 7.185a5.644 5.644 0 0 1 4.003-1.666Zm-21.54 41.376c1.227-.087 2.37-.659 3.288-1.708L36.9 27.81l-8.628-8.628-17.48 17.475c-.931.824-1.507 1.976-1.6 3.03v7.204l7.042.005Zm15.288-30.964 8.628 8.628 5.5-5.501a1.062 1.062 0 0 0 0-1.501l-7.132-7.133a1.048 1.048 0 0 0-1.488 0l-5.508 5.507Z" clip-rule="evenodd"/>
</svg>
