<svg xmlns="http://www.w3.org/2000/svg" width="56" height="56" fill="none" viewBox="0 0 56 56">
  <path fill="#000" fill-rule="evenodd" d="M35.77 2.298H11.836A4.596 4.596 0 0 0 7.24 6.894V48.26a4.596 4.596 0 0 0 4.597 4.596H44.01a4.596 4.596 0 0 0 4.596-4.596V15.135L35.769 2.298ZM11.836 6.894H30.22v9.193a4.596 4.596 0 0 0 4.596 4.596h9.193V48.26H11.837V6.894Zm22.98 9.193v-8.24l8.24 8.24h-8.24Zm-9.192 6.894v6.894H18.73v4.596h6.894v6.894h4.596v-6.894h6.894v-4.596H30.22v-6.894h-4.596Z" clip-rule="evenodd"/>
</svg>
