<svg xmlns="http://www.w3.org/2000/svg" width="56" height="56" fill="none" viewBox="0 0 56 56">
  <path fill="#000" fill-rule="evenodd" d="M4.596 45.962a4.596 4.596 0 0 0 4.596 4.596H40.02l10.539-10.539V9.192a4.596 4.596 0 0 0-4.596-4.596H9.191a4.596 4.596 0 0 0-4.596 4.596v36.77Zm4.596-36.77h36.77v25.28h-6.895a4.596 4.596 0 0 0-4.596 4.595v6.895H9.192V9.191Zm29.875 29.875h5.943l-5.943 5.943v-5.943Zm-22.98-4.596v4.596h13.788v-4.596H16.087Zm0-4.596v-4.596h22.98v4.596h-22.98Zm0-13.788v4.596h22.98v-4.596h-22.98Z" clip-rule="evenodd"/>
</svg>
