<svg xmlns="http://www.w3.org/2000/svg" width="56" height="56" fill="none" viewBox="0 0 56 56">
  <path fill="#000" fill-rule="evenodd" d="M11.914 2.298h23.932l12.837 12.837V48.26a4.596 4.596 0 0 1-4.596 4.596H11.913a4.596 4.596 0 0 1-4.596-4.596V6.894a4.596 4.596 0 0 1 4.597-4.596Zm18.384 4.596H11.914V48.26h32.173V20.683h-9.193a4.596 4.596 0 0 1-4.596-4.596V6.894Zm4.596.952v8.24h8.24l-8.24-8.24ZM18.808 39.067v-4.596h13.788v4.596H18.808Zm0-13.788v4.596h18.384v-4.596H18.808Z" clip-rule="evenodd"/>
</svg>
