<svg xmlns="http://www.w3.org/2000/svg" width="55" height="55" fill="none" viewBox="0 0 55 55">
  <path fill="#000" fill-rule="evenodd" d="m27.5 53.459 1.507-1.316C41.682 41.075 48.125 31.41 48.125 22.917c0-12.03-9.39-20.625-20.625-20.625-11.236 0-20.625 8.595-20.625 20.625 0 8.494 6.443 18.158 19.118 29.226l1.507 1.316Zm0-6.105C16.744 37.66 11.458 29.446 11.458 22.917c0-9.404 7.251-16.042 16.042-16.042 8.79 0 16.042 6.638 16.042 16.042 0 6.53-5.286 14.743-16.042 24.437Zm0-35.896c6.328 0 11.458 5.13 11.458 11.459 0 6.328-5.13 11.458-11.458 11.458s-11.458-5.13-11.458-11.458c0-6.329 5.13-11.459 11.458-11.459Zm-6.875 11.459a6.875 6.875 0 1 1 13.75 0 6.875 6.875 0 0 1-13.75 0Z" clip-rule="evenodd"/>
</svg>
