<svg xmlns="http://www.w3.org/2000/svg" width="56" height="56" fill="none" viewBox="0 0 56 56">
  <path fill="#000" fill-rule="evenodd" d="M48.837 9.192v22.981a4.596 4.596 0 0 1-4.597 4.596H30.452v3.295l10.375 6.225-2.365 3.941-8.01-4.806v5.134h-4.596v-5.134l-8.01 4.806-2.365-3.941 10.375-6.225V36.77H12.067a4.596 4.596 0 0 1-4.596-4.596V9.193H5.173V4.595h45.962v4.596h-2.298Zm-36.77 0v22.981H44.24V9.193H12.067Zm6.895 18.385h4.596v-9.192h-4.596v9.192Zm11.49 0h-4.596V13.788h4.596v13.789Zm2.298 0h4.596v-6.894H32.75v6.894Z" clip-rule="evenodd"/>
</svg>
