<svg xmlns="http://www.w3.org/2000/svg" width="56" height="57" fill="none" viewBox="0 0 56 57">
  <path fill="#000" fill-rule="evenodd" d="m43.72 48.946 5.095-5.095-1.795-6.52.782-1.867 5.9-3.329V24.93l-5.883-3.343-.769-1.864 1.817-6.523-5.099-5.091-6.52 1.794-1.863-.781-3.329-5.9h-7.205l-3.343 5.882-1.864.769-6.521-1.82-5.091 5.091 1.794 6.522-.781 1.862-5.9 3.33v7.203l5.877 3.35.77 1.866L7.975 43.8l5.093 5.093 6.52-1.795 1.864.782 3.33 5.898h7.203l3.348-5.879 1.865-.769 6.521 1.817Zm.451-16.71-2.003 4.785 1.506 5.471-1.307 1.306-5.46-1.52-4.786 1.974-2.808 4.928h-1.848l-2.785-4.932-4.78-2.004-5.473 1.507-1.304-1.304 1.52-5.46L12.67 32.2l-4.93-2.81v-1.848l4.935-2.784 2.004-4.78-1.507-5.475 1.302-1.3 5.46 1.522 4.788-1.975 2.803-4.933h1.847l2.784 4.934 4.78 2.005 5.475-1.507 1.308 1.306-1.52 5.458 1.974 4.788 4.933 2.804v1.846l-4.935 2.785Zm-15.748 5.456a9.192 9.192 0 1 1 0-18.384 9.192 9.192 0 0 1 0 18.384ZM33.02 28.5a4.596 4.596 0 1 1-9.192 0 4.596 4.596 0 0 1 9.192 0Z" clip-rule="evenodd"/>
</svg>
