<svg xmlns="http://www.w3.org/2000/svg" width="57" height="56" fill="none" viewBox="0 0 57 56">
  <path fill="#000" fill-rule="evenodd" d="M28.5 52.856c-13.961 0-25.279-11.318-25.279-25.28 0-13.96 11.318-25.278 25.279-25.278s25.279 11.318 25.279 25.279S42.46 52.856 28.5 52.856Zm17.005-13.502a20.588 20.588 0 0 0 3.678-11.777c0-11.423-9.26-20.683-20.683-20.683S7.817 16.154 7.817 27.577c0 4.376 1.36 8.435 3.678 11.777 2.586-3.415 8.66-4.882 16.996-4.883-5.141-.004-9.183-3.618-9.183-11.49 0-5.158 3.629-9.193 9.192-9.193 5.548 0 9.192 4.416 9.192 9.652 0 7.534-4.09 11.028-9.184 11.031 8.336.001 14.411 1.468 16.997 4.883Zm-3.298 3.711c-.672-2.418-5.504-3.998-13.707-3.998-8.203 0-13.035 1.58-13.707 3.998A20.604 20.604 0 0 0 28.5 48.26a20.604 20.604 0 0 0 13.707-5.195ZM23.904 22.981c0 5.215 1.88 6.894 4.596 6.894 2.706 0 4.596-1.612 4.596-6.435 0-2.871-1.802-5.055-4.596-5.055-2.91 0-4.596 1.874-4.596 4.596Z" clip-rule="evenodd"/>
</svg>
