<svg xmlns="http://www.w3.org/2000/svg" width="56" height="56" fill="none" viewBox="0 0 56 56">
  <path fill="#000" fill-rule="evenodd" d="M28.423 9.192c6.268 0 12.262 3.288 17.848 8.69a53.552 53.552 0 0 1 5.147 5.778c.916 1.188 1.566 2.122 1.922 2.679l.792 1.238-.792 1.238c-.356.557-1.006 1.491-1.922 2.679a53.563 53.563 0 0 1-5.147 5.778c-5.586 5.402-11.58 8.69-17.848 8.69-6.268 0-12.262-3.288-17.847-8.69a53.567 53.567 0 0 1-5.148-5.778c-.915-1.188-1.566-2.122-1.922-2.679l-.792-1.238.792-1.238c.356-.557 1.007-1.491 1.922-2.679a53.557 53.557 0 0 1 5.148-5.778c5.585-5.402 11.579-8.69 17.847-8.69Zm19.355 17.275a49.008 49.008 0 0 0-4.702-5.281c-4.811-4.653-9.815-7.397-14.653-7.397-4.837 0-9.841 2.744-14.652 7.397a49.013 49.013 0 0 0-5.534 6.39 49.022 49.022 0 0 0 5.533 6.391c4.812 4.654 9.816 7.398 14.653 7.398 4.838 0 9.842-2.744 14.653-7.397a49.017 49.017 0 0 0 5.533-6.391 47.24 47.24 0 0 0-.83-1.11Zm-28.547 1.11a9.192 9.192 0 1 0 18.384 0 9.192 9.192 0 0 0-18.384 0Zm13.788 0a4.596 4.596 0 1 1-9.192 0 4.596 4.596 0 0 1 9.192 0Z" clip-rule="evenodd"/>
</svg>
